<style>
    .cast_caf_state_c {
        fill: var(--connected-color, #4285f4);
    }

    .cast_caf_state_d {
        fill: var(--disconnected-color, #7d7d7d);
    }

    .cast_caf_state_h {
        opacity: 0;
    }

</style>
<svg x="0px" y="0px" width="100%" height="100%" viewBox="0 0 24 24">
    <g>
        <path id="cast_caf_icon_arch0" class="cast_caf_state_c" d="M1,18 L1,21 L4,21 C4,19.3 2.66,18 1,18 L1,18 Z"
            style="fill: rgb(255, 255, 255);"></path>
        <path id="cast_caf_icon_arch1" class="cast_caf_state_c"
            d="M1,14 L1,16 C3.76,16 6,18.2 6,21 L8,21 C8,17.13 4.87,14 1,14 L1,14 Z" style="fill: rgb(255, 255, 255);">
        </path>
        <path id="cast_caf_icon_arch2" class="cast_caf_state_c"
            d="M1,10 L1,12 C5.97,12 10,16.0 10,21 L12,21 C12,14.92 7.07,10 1,10 L1,10 Z"
            style="fill: rgb(255, 255, 255);"></path>
        <path id="cast_caf_icon_box" class="cast_caf_state_c"
            d="M21,3 L3,3 C1.9,3 1,3.9 1,5 L1,8 L3,8 L3,5 L21,5 L21,19 L14,19 L14,21 L21,21 C22.1,21 23,20.1 23,19 L23,5 C23,3.9 22.1,3 21,3 L21,3 Z"
            style="fill: rgb(255, 255, 255);"></path>
        <path id="cast_caf_icon_boxfill" class="cast_caf_state_c"
            d="M5,7 L5,8.63 C8,8.6 13.37,14 13.37,17 L19,17 L19,7 Z" style="fill: rgb(255, 255, 255);"></path>
    </g>
</svg>
